<svg xmlns="http://www.w3.org/2000/svg" xmlns:svg="http://www.w3.org/2000/svg" xmlns:xlink="http://www.w3.org/1999/xlink" id="svg2" width="210mm" height="297mm" version="1.1" viewBox="0 0 744.094 1052.362"><defs id="defs4"><path style="color:#000;font-style:normal;font-variant:normal;font-weight:400;font-stretch:normal;font-size:medium;line-height:normal;font-family:sans-serif;text-indent:0;text-align:start;text-decoration:none;text-decoration-line:none;text-decoration-style:solid;text-decoration-color:#000;letter-spacing:normal;word-spacing:normal;text-transform:none;direction:ltr;block-progression:tb;writing-mode:lr-tb;baseline-shift:baseline;text-anchor:start;white-space:normal;clip-rule:nonzero;display:inline;overflow:visible;visibility:visible;opacity:1;isolation:auto;mix-blend-mode:normal;color-interpolation:sRGB;color-interpolation-filters:linearRGB;solid-color:#000;solid-opacity:1;fill:#000;fill-opacity:1;fill-rule:evenodd;stroke:none;stroke-width:1px;stroke-linecap:butt;stroke-linejoin:miter;stroke-miterlimit:4;stroke-dasharray:none;stroke-dashoffset:0;stroke-opacity:1;color-rendering:auto;image-rendering:auto;shape-rendering:auto;text-rendering:auto;enable-background:accumulate" id="path4142-3" d="m 263.62305,623.95312 -0.95703,0.28907 c 0,0 8.73472,28.99871 31.14453,57.99219 22.40981,28.99347 58.55631,58.02539 113.28125,58.02539 109.39431,0 155.50976,-97.76563 155.50976,-97.76563 l -0.90429,-0.42578 c 0,0 -45.80684,97.19141 -154.60547,97.19141 -54.37155,0 -90.2008,-28.79897 -112.49024,-57.63672 -22.28944,-28.83775 -30.97851,-57.66993 -30.97851,-57.66993 z"/></defs><metadata id="metadata7"/><g id="layer1"><circle style="fill:none;stroke:#000;stroke-width:15;stroke-miterlimit:4;stroke-dasharray:none;stroke-opacity:1" id="path4136" cx="416" cy="574.934" r="196.732"/><text style="font-style:normal;font-weight:400;font-size:40px;line-height:125%;font-family:sans-serif;letter-spacing:0;word-spacing:0;fill:#000;fill-opacity:1;stroke:none;stroke-width:1px;stroke-linecap:butt;stroke-linejoin:miter;stroke-opacity:1" id="text4138" x="297.143" y="609.791" xml:space="preserve"><tspan id="tspan4140" x="297.143" y="609.791" style="font-size:90px">Mailu</tspan></text><path style="color:#000;font-style:normal;font-variant:normal;font-weight:400;font-stretch:normal;font-size:medium;line-height:normal;font-family:sans-serif;text-indent:0;text-align:start;text-decoration:none;text-decoration-line:none;text-decoration-style:solid;text-decoration-color:#000;letter-spacing:normal;word-spacing:normal;text-transform:none;direction:ltr;block-progression:tb;writing-mode:lr-tb;baseline-shift:baseline;text-anchor:start;white-space:normal;clip-rule:nonzero;display:inline;overflow:visible;visibility:visible;opacity:1;isolation:auto;mix-blend-mode:normal;color-interpolation:sRGB;color-interpolation-filters:linearRGB;solid-color:#000;solid-opacity:1;fill:none;fill-opacity:1;fill-rule:evenodd;stroke:none;stroke-width:1px;stroke-linecap:butt;stroke-linejoin:miter;stroke-miterlimit:4;stroke-dasharray:none;stroke-dashoffset:0;stroke-opacity:1;color-rendering:auto;image-rendering:auto;shape-rendering:auto;text-rendering:auto;enable-background:accumulate" id="path4142" d="m 263.62305,623.95312 -0.95703,0.28907 c 0,0 8.73472,28.99871 31.14453,57.99219 22.40981,28.99347 58.55631,58.02539 113.28125,58.02539 109.39431,0 155.50976,-97.76563 155.50976,-97.76563 l -0.90429,-0.42578 c 0,0 -45.80684,97.19141 -154.60547,97.19141 -54.37155,0 -90.2008,-28.79897 -112.49024,-57.63672 -22.28944,-28.83775 -30.97851,-57.66993 -30.97851,-57.66993 z"/><text style="font-style:normal;font-weight:400;font-size:40px;line-height:125%;font-family:sans-serif;letter-spacing:0;word-spacing:0;fill:#000;fill-opacity:1;stroke:none;stroke-width:1px;stroke-linecap:butt;stroke-linejoin:miter;stroke-opacity:1" id="text4144" xml:space="preserve"><textPath id="textPath4150" xlink:href="#path4142"><tspan id="tspan4146" style="fill:#000;fill-opacity:1">email since 2016</tspan></textPath></text><path style="color:#000;font-style:normal;font-variant:normal;font-weight:400;font-stretch:normal;font-size:medium;line-height:normal;font-family:sans-serif;text-indent:0;text-align:start;text-decoration:none;text-decoration-line:none;text-decoration-style:solid;text-decoration-color:#000;letter-spacing:normal;word-spacing:normal;text-transform:none;direction:ltr;block-progression:tb;writing-mode:lr-tb;baseline-shift:baseline;text-anchor:start;white-space:normal;clip-rule:nonzero;display:inline;overflow:visible;visibility:visible;opacity:1;isolation:auto;mix-blend-mode:normal;color-interpolation:sRGB;color-interpolation-filters:linearRGB;solid-color:#000;solid-opacity:1;fill:none;fill-opacity:1;fill-rule:evenodd;stroke:none;stroke-width:1px;stroke-linecap:butt;stroke-linejoin:miter;stroke-miterlimit:4;stroke-dasharray:none;stroke-dashoffset:0;stroke-opacity:1;color-rendering:auto;image-rendering:auto;shape-rendering:auto;text-rendering:auto;enable-background:accumulate" id="path4184" d="m 275.13574,527.65954 -0.91835,-0.23149 c 0,0 8.38171,-23.22244 29.88583,-46.44069 21.50412,-23.21824 56.18977,-46.46727 108.70301,-46.46727 104.97317,0 149.22487,78.29163 149.22487,78.29163 l -0.86774,0.34096 c 0,0 -43.95557,-77.83178 -148.35713,-77.83178 -52.17413,0 -86.55535,23.06248 -107.94397,46.15602 -21.38862,23.09354 -29.72652,46.18262 -29.72652,46.18262 z"/><text style="font-style:normal;font-weight:400;font-size:40px;line-height:125%;font-family:sans-serif;letter-spacing:0;word-spacing:0;fill:#000;fill-opacity:1;stroke:none;stroke-width:1px;stroke-linecap:butt;stroke-linejoin:miter;stroke-opacity:1" id="text4144-6" x="-262.666" y="-623.173" transform="translate(404.56768,384.57019)" xml:space="preserve"><textPath id="textPath4150-7" xlink:href="#path4142-3"><tspan id="tspan4146-5" style="fill:#000;fill-opacity:1">email since 2016</tspan></textPath></text><text style="font-style:normal;font-weight:400;font-size:40px;line-height:125%;font-family:sans-serif;letter-spacing:0;word-spacing:0;fill:#000;fill-opacity:1;stroke:none;stroke-width:1px;stroke-linecap:butt;stroke-linejoin:miter;stroke-opacity:1" id="text4203" x="-2" transform="translate(-4,10)" xml:space="preserve"><textPath id="textPath4207" xlink:href="#path4184"><tspan id="tspan4205">delivering insular</tspan></textPath></text><path style="fill:none;fill-rule:evenodd;stroke:#000;stroke-width:4;stroke-linecap:butt;stroke-linejoin:miter;stroke-opacity:.61572051;stroke-miterlimit:4;stroke-dasharray:none" id="path4214" d="m 228.79956,370.50924 c 0,0 113.13708,-21.21321 163.13963,81.82235 50.00255,103.03556 58.08377,183.34269 168.1904,213.14219 110.10663,29.7995 99.50003,25.75889 99.50003,25.75889"/><path style="fill:none;fill-rule:evenodd;stroke:#000;stroke-width:4;stroke-linecap:butt;stroke-linejoin:miter;stroke-miterlimit:4;stroke-dasharray:none;stroke-opacity:.61572051" id="path4230-3" d="m 210.94153,406.39617 c 0,0 113.13708,-21.21321 163.13963,81.82235 50.00255,103.03556 58.08377,183.34269 168.1904,213.14219 110.10663,29.7995 99.50003,25.75889 99.50003,25.75889"/><path style="fill:none;fill-rule:evenodd;stroke:#000;stroke-width:4;stroke-linecap:butt;stroke-linejoin:miter;stroke-miterlimit:4;stroke-dasharray:none;stroke-opacity:.61572051" id="path4230-3-5" d="m 192.75878,438.21597 c 0,0 113.13708,-21.21321 163.13963,81.82235 50.00255,103.03556 58.08377,183.34269 168.1904,213.14219 110.10663,29.7995 99.50003,25.75889 99.50003,25.75889"/></g></svg>